PathFileType	3	(X/Y/Z)	results
DataRate	CameraRate	NumFrames	NumMarkers	Units	OrigDataRate	OrigDataStartFrame	OrigNumFrames
30.0	30.0	4	85	mm	30.0	1	243
Frame#	Time	head			nose			neck			shoulder_r			elbow_r			wrist_r			shoulder_l			elbow_l			wrist_l			hip_r			knee_r			ankle_r			hip_l			knee_l			ankle_l			heel_r			heel_l			mtoe_r			ltoe_r			mtoe_l			ltoe_l			asis_l			asis_r			psi_r			psi_l			mhnd_r			lhnd_r			mhnd_l			lhnd_l			l_lat_knee			r_med_wrist			l_lat_ankle			r_med_ankle			r_lat_knee			xiphoid			l_med_ankle			r_med_knee			l_med_elbow			navel			r_lat_elbow			r_lat_wrist			l_med_wrist			l_lat_elbow			l_med_knee			r_med_elbow			r_lat_ankle			l_lat_wrist			chin			T10			r_eye			l_eye			l_ear			r_ear			spinal_cord_8			spinal_cord_12			spinal_cord_27			spinal_cord_33			up_arm_r_0			up_arm_r_5			up_arm_l_0			up_arm_l_5			front_torso_11			front_torso_7			front_torso_4			front_torso_1			front_torso_10			thigh_r_2			thigh_r_3			thigh_l_1			thigh_l_5			shank_l_0			shank_l_4			shank_r_1			shank_r_2			foot_r_1			foot_r_3			foot_r_5			foot_r_6			foot_r_7			foot_l_1			foot_l_7			foot_l_0			foot_l_4			foot_l_5			foot_l_6			
		X1	Y1	Z1	X2	Y2	Z2	X3	Y3	Z3	X4	Y4	Z4	X5	Y5	Z5	X6	Y6	Z6	X7	Y7	Z7	X8	Y8	Z8	X9	Y9	Z9	X10	Y10	Z10	X11	Y11	Z11	X12	Y12	Z12	X13	Y13	Z13	X14	Y14	Z14	X15	Y15	Z15	X16	Y16	Z16	X17	Y17	Z17	X18	Y18	Z18	X19	Y19	Z19	X20	Y20	Z20	X21	Y21	Z21	X22	Y22	Z22	X23	Y23	Z23	X24	Y24	Z24	X25	Y25	Z25	X26	Y26	Z26	X27	Y27	Z27	X28	Y28	Z28	X29	Y29	Z29	X30	Y30	Z30	X31	Y31	Z31	X32	Y32	Z32	X33	Y33	Z33	X34	Y34	Z34	X35	Y35	Z35	X36	Y36	Z36	X37	Y37	Z37	X38	Y38	Z38	X39	Y39	Z39	X40	Y40	Z40	X41	Y41	Z41	X42	Y42	Z42	X43	Y43	Z43	X44	Y44	Z44	X45	Y45	Z45	X46	Y46	Z46	X47	Y47	Z47	X48	Y48	Z48	X49	Y49	Z49	X50	Y50	Z50	X51	Y51	Z51	X52	Y52	Z52	X53	Y53	Z53	X54	Y54	Z54	X55	Y55	Z55	X56	Y56	Z56	X57	Y57	Z57	X58	Y58	Z58	X59	Y59	Z59	X60	Y60	Z60	X61	Y61	Z61	X62	Y62	Z62	X63	Y63	Z63	X64	Y64	Z64	X65	Y65	Z65	X66	Y66	Z66	X67	Y67	Z67	X68	Y68	Z68	X69	Y69	Z69	X70	Y70	Z70	X71	Y71	Z71	X72	Y72	Z72	X73	Y73	Z73	X74	Y74	Z74	X75	Y75	Z75	X76	Y76	Z76	X77	Y77	Z77	X78	Y78	Z78	X79	Y79	Z79	X80	Y80	Z80	X81	Y81	Z81	X82	Y82	Z82	X83	Y83	Z83	X84	Y84	Z84	X85	Y85	Z85	
1	0.03333333333333333	269.93388512276647	1694.8077484548883	-268.45265907716964	216.74065160649548	1528.8733550401305	-390.2321341728759	246.37536129147207	1368.5426858845078	-238.07435427715257	438.91345830357795	1318.994596644764	-265.83085510432755	479.4380946140511	1060.1687359561606	-284.3797099296132	440.2747413042828	884.1747785002957	-420.70726580969875	87.06258121405547	1320.329927271343	-206.35731342992537	-5.239385383315849	1071.7441528978206	-248.7972285954097	34.91955114160809	876.5299506097169	-381.52641451779886	344.42446154387983	874.7134711234132	-281.67192266813487	369.01061881948226	493.4216224483775	-231.26133470750582	434.19540949601486	109.84563064289627	-183.53304611034102	138.48552276219613	867.4173116035154	-271.981527911519	136.16604519282544	485.1399634040831	-215.89353901843978	93.44699123466144	105.53323861478336	-166.54378359762651	437.7305397549877	53.96128829651558	-163.8658076629694	84.11607232322385	42.90102502596109	-139.34390537041065	434.0015699212281	35.54442067338208	-389.4656835110689	500.77832232137985	36.3703765126524	-329.6081911204508	98.23125605273448	46.77217446846471	-367.97724468800743	18.135106353359436	26.186028763906858	-313.37939168154804	88.84125820952138	941.2696960839303	-295.6498476302611	390.64101043053637	947.990461625647	-307.2580647401881	296.622431309413	927.4625431837071	-158.18769656092502	193.57467928710113	925.0309696770728	-159.37511570110493	444.18996296406505	813.9767469123188	-441.6499297995301	419.4202322504487	830.8124565637654	-486.0578297234574	21.560584561180374	806.8762592952278	-409.53566475622983	66.77604466166723	815.3944272760198	-436.71562623265095	86.99807447216276	480.65485653103343	-205.96797450147636	460.95676349615024	876.7986265986683	-402.63545785149137	40.933990018893226	98.00703749735878	-153.65132464253347	401.30364371858417	93.06606789238897	-195.0365207265057	412.03203640087276	486.6541840118017	-231.02085220160936	238.9211158034978	1199.176930934482	-332.09236991987774	119.60439874180229	88.99741838683234	-182.49451935143247	328.6948339220442	484.2718547248306	-239.3450415835809	2.1424560105916117	1072.4586778560101	-212.62303826794832	233.32637211809413	980.6094964551995	-345.83997386271966	505.3479762179558	1072.875232366979	-312.30238482589215	416.4446038922887	903.5682102363419	-426.99324838220724	2.231491968178269	878.0858606054758	-375.2898476910257	-17.887119052914887	1093.9935061444153	-280.6599899011228	172.05849225522562	478.6053758339655	-249.41727334726656	454.2678699838227	1060.422624114499	-257.24004556005104	484.1617648076701	99.28378437632956	-185.53472545927826	60.016050435060144	895.4597021398133	-387.85488037216714	218.2964170945421	1452.2280555563966	-375.09584896733884	255.0089605597111	1210.9671703641336	-137.68512630704856	250.1233669017517	1558.6033814686534	-399.2703546884582	184.97610858273117	1561.7420040626344	-376.71491468578176	168.2008671956188	1552.9922746847024	-263.6720967195656	330.4128925750569	1541.9500264098567	-317.31856955477946	250.65603865418151	1427.7450691378897	-189.66598632795638	253.2344481095331	1310.8901160261933	-137.87899574432282	265.09353206392007	1059.542978472184	-154.00336866236302	253.7597322262685	1201.3171841052083	-150.587419026672	437.1081707744911	1190.6756896073682	-315.9503705819641	495.49243485044366	1167.8423045717063	-253.17867996265198	53.761417367324576	1279.7879641229563	-239.16689746183167	13.9755470021877	1136.2730016693297	-195.02217921025684	286.8651593588153	1008.0608633362423	-310.7762056342786	236.9120903822967	1112.3138825438184	-362.3251493068152	171.6883645334994	1244.9028508494505	-332.4957399258557	164.61907181711874	1042.645404944534	-305.0678686754398	321.30075264362716	1284.7033786022373	-352.8485979957307	340.44331204261266	665.8862707299306	-258.1441104390034	437.14374743438776	637.7865369429576	-245.9989915690096	180.85115299747775	591.6512684569142	-246.8849282038865	36.85335607238968	764.8732544665855	-247.73611456429768	36.58302440167746	204.8468620133303	-178.6266694177594	166.08629984770684	331.7589552849214	-208.07279711130803	455.1651226785901	338.9386841443436	-210.34725422518295	363.10292777401344	285.89894906074363	-210.75282570141886	457.73464630382796	29.998489712583332	-371.16079203508326	482.021482307883	33.49489270138649	-354.62435461615667	421.79194821005507	49.6738480507765	-306.9922729737399	458.6539175184281	58.429515229697195	-294.1716985079823	490.42092610336846	46.66198975965635	-281.70375808105774	49.07298651582077	29.7987821886477	-343.0662195313169	26.44547955963249	56.94970775278055	-236.5630408482755	33.92645198665364	28.475923153148393	-335.3976311218376	67.6706481229559	31.380975469808075	-351.8341726792342	58.434787078845424	45.682185679085705	-292.61735938563714	87.77639766937142	59.61735092502039	-261.7272694711746	
2	0.06666666666666667	275.2475348741287	1695.6192323940193	-271.273459313098	220.82935887192625	1527.4970543829984	-389.45797160574057	249.55234307157642	1371.008665610196	-238.382676953844	440.89406215169413	1318.6826258733452	-263.1549598033421	492.0086336011116	1062.3051999976253	-288.35512669771487	428.14352995897445	904.3046210229951	-436.8472456001709	86.32854524198656	1327.3560176412025	-210.51587037356018	-3.5051362288435577	1078.647894303883	-257.311871455978	39.932995802316285	899.4772150281125	-410.1168390680164	345.6936943026083	875.4579014630167	-274.89850779569235	370.25411195795283	493.64389591804223	-228.5156147178124	435.5657340914052	109.5767760011807	-185.10562311932864	139.66709233872982	867.850595796599	-267.6079396065708	132.99226723307706	484.3822833091163	-219.7631480759447	91.71182049284712	104.9638309748443	-167.80985961768982	439.33715196042914	53.76579042467797	-165.72918582770674	82.18661468124807	42.22954234271177	-140.46626562501461	433.3014975450852	34.756364583353545	-391.22996812503885	500.75059441604463	36.979249514356525	-332.16716787540656	101.07148153413675	46.6140650794363	-368.7458438214867	19.98347838900267	25.406763467459374	-315.8771929135782	90.14017424105977	940.8058232129695	-294.13219701559046	392.04543483610564	948.062893671002	-302.1045484885637	296.1816555682665	931.7794435377801	-153.68673149592357	193.16408437983205	929.0088909300338	-156.10866780146048	425.35611772946527	836.6356967905566	-465.0400603009076	397.50117547922815	859.4577496263593	-504.69227778419867	29.804408749791847	831.4375985989549	-443.02032096952206	71.36763496478343	846.2404504419399	-473.171956540806	83.67177556930251	480.25427571378765	-210.7963177578015	449.97213988226696	893.9112196365833	-421.8728374937792	39.02220222320788	97.22224092077114	-155.79543462560915	402.30078665107277	92.9701865258794	-195.75533523238835	413.2752392309137	486.8993178297757	-228.1942542307964	242.61043510544613	1201.030725206234	-331.32901459444054	118.25267452753806	88.4526942961924	-183.1407017955219	329.96701809403044	484.57891436444277	-236.8205487691247	8.06228756816596	1077.501556727615	-222.26255204761156	235.8240072670164	982.4115667040568	-343.64279220018534	515.4142676030673	1076.568323006091	-317.7012066427714	405.1379152181863	925.5433883683745	-438.62225898726683	7.969829595672526	897.5345865861018	-400.9295089330906	-20.419323472555874	1102.2724552672316	-286.05251922298874	169.58104755714345	478.377320141465	-252.55024738180632	468.6909777144463	1061.0317611904788	-259.6352498389764	485.41898939012805	98.87701992058884	-188.62189043586386	62.65503678840649	921.0677577777711	-416.88267730499246	221.62607972802655	1451.1994356742887	-372.6036521508863	255.42569445341357	1214.0980003710292	-136.76020848344461	254.5134034235128	1556.7048106557859	-399.0632669249521	189.33798913936928	1560.954922409559	-376.77277534316613	172.1775098912519	1554.8998237383719	-263.61139096853435	334.4226336131657	1541.1474170990928	-316.5264891202995	253.38603720555403	1430.5246957428576	-190.32269967956788	254.30826360433906	1314.026379249672	-137.68324291481343	264.79926046346014	1062.500119831302	-151.84292648247117	254.33570097949908	1204.364831952058	-149.61436385842478	441.7210153683499	1191.0638916318712	-315.05622777464595	505.09416937901	1170.212447405155	-256.5803222110269	50.515610047316514	1287.6789817484205	-241.69685158525277	20.138300076139732	1140.5478271843895	-202.22713567724898	288.9295661682307	1009.7671145782052	-307.8528391474432	240.55420657827088	1113.9698147498113	-360.9839653289096	175.6950539547638	1247.183182973798	-333.21255122467375	166.83209956756195	1045.1751887095775	-304.4974726474445	325.8927420983893	1285.8771171253643	-351.25753538129845	341.71114551644064	666.3886897164725	-253.62854943501577	438.3810336757292	638.1921750490669	-241.46456817453472	179.24760473135754	591.2656994336827	-247.46409097968603	36.72346540358788	765.7042323421442	-247.5841753497442	34.46887002699734	203.8089517787433	-181.79518626744556	163.70343681927758	331.2665495752581	-210.04124291125905	456.48325781602483	338.77147185371547	-211.0788089981648	364.2785431130028	286.01368676913285	-209.14686280006003	457.3487190983589	29.701048899436422	-373.1949955535157	481.7582203567146	33.69274738291255	-356.95394906650023	421.7989973569169	48.845465860732695	-308.64807700707775	458.63760935152624	58.323651695954716	-296.2822257118729	490.7654210506251	47.1855652445443	-284.1655523135661	51.51329953317095	29.27540000396495	-344.9015997809334	26.478439469331345	56.08211986022339	-238.85085979405105	36.21813466924606	27.839917464996603	-337.5550336353979	70.28013393316756	30.994684008332985	-353.2743737747755	59.71015252981698	45.126287687734646	-294.24023119689144	88.30521841948016	59.19499885825513	-262.71706241316275	
3	0.1	278.3301296091849	1696.356792529135	-273.6400136518842	224.70681643511134	1526.3108511607381	-389.4109153189132	250.78583015259326	1372.286476011661	-239.04999282200666	444.507427184465	1319.6779733273086	-262.3815298651727	495.72799687514083	1064.3328027162493	-296.3289805911643	421.00832567556245	920.6511122603704	-454.01660331168205	85.15063532840887	1330.5637396019779	-217.01612931443682	-3.623780738778833	1081.916673867072	-266.10203779366157	48.40933011264776	924.9417473283044	-439.2776410600726	346.8450890008972	875.7843417385792	-269.8657164497197	371.39235075565716	493.4577670180804	-227.5495078520719	436.4324189484973	109.1859390088349	-185.56689614889243	140.77559052417467	868.1347710519744	-263.9640161296709	130.36705858952226	483.7993206407639	-223.37145366924577	89.96293388746086	104.5945111715343	-169.21611580768848	440.3428486170747	53.331972161889084	-166.24665858101076	80.03886677980464	41.80804966148423	-141.79227148682665	433.7011702154409	35.117394676768534	-391.79600459379554	501.3567951733815	38.79609546708088	-333.0429635533664	103.45281594062068	46.31617203766466	-369.64944577496607	21.16925369075266	25.706221853435288	-318.41709777661043	91.39395856940291	940.5420173988852	-292.2051591070511	393.3447649256476	947.9120188043014	-298.070604929991	296.3921259453353	934.3032313494149	-150.09138333663384	193.39745940622424	931.3987375167343	-153.22575581892698	414.298428626779	855.3986131103745	-486.8613351683642	386.75018256556683	882.3138506598953	-524.0864124866213	43.46112087734862	859.798209537935	-478.6025887430463	81.05270433076159	882.1669686431258	-509.29882293010076	80.82979984189778	479.9398285897657	-215.9522254405889	442.6177979450784	908.1825315534942	-440.3670939766091	36.980371717583004	96.60648490473206	-158.75122019751325	402.8476948187746	92.69156699887982	-195.35228870248744	414.39968011604077	486.7074822131391	-227.65315869603904	245.4685878962134	1201.5692114888209	-330.73998420388284	117.06812104849242	88.1252395823407	-183.5737343943595	331.01150211607893	484.56412656286886	-235.51920821907788	11.710210908607424	1079.457201047513	-232.59989058283605	238.87589770030448	982.858237818257	-341.42022848876195	518.9822427557793	1079.587599999058	-325.2942010721653	399.0395862379487	943.0290419366311	-453.70520099367883	17.53655987170258	918.4628517026078	-428.5668612870356	-24.090786678238317	1106.3787907261858	-291.6547470734796	168.04890135913215	478.28206787670644	-254.90600285295616	472.5473419624483	1062.0814096531285	-267.55825734131224	486.141395252502	98.307055344726	-190.34848008476777	68.1646302553726	949.5478285596752	-444.9774772466109	225.2453857148776	1450.3113295263786	-371.2501850608021	254.843943221078	1216.1950992242366	-136.08595525937318	258.51598320763355	1555.3065449327887	-399.2170137703025	193.1539026153083	1560.0213560015134	-377.5760094217148	174.99342447262072	1555.9225991045457	-264.4829397531689	337.6760761948611	1541.0578265144495	-315.72754763328777	253.77617252616153	1432.185707347285	-191.40803225194887	253.75442776734047	1316.112846655719	-137.8290140283258	264.4653305536838	1064.481512090817	-149.78580529601808	253.98023040480427	1206.3592393086856	-148.87899334819429	445.2015881833896	1193.855581992558	-318.4993592722339	508.86847345710305	1171.1379197689473	-261.04671399177937	47.06004106963795	1291.4078180842425	-246.08514259196875	24.4728637032863	1141.8103515335422	-210.89091723437102	291.3436264046568	1010.5010690280332	-304.91737308624624	243.92693841630273	1114.273474073118	-359.72832417447665	178.6022344278388	1247.7032730476537	-334.1757433184781	169.2099735690698	1045.9315542673282	-304.00462498962696	329.09985821977966	1286.2555073190465	-349.8721754828731	342.8136319571552	666.5187977551494	-250.63328084618269	439.5597766388879	638.0969975563564	-239.65794855485436	178.16122025912074	591.0021747099447	-247.4887246634143	36.674043726242054	766.2750821994208	-249.1419795056777	32.53900239693053	202.92162340105025	-185.85864383225652	161.75379395625382	330.98781370319097	-211.30350087151925	457.49033241104655	338.28989836450273	-212.2183103433187	365.1789853094914	285.8612595456611	-207.89641903178108	457.9549800989542	30.595639733200674	-373.8965142346655	482.3340538364127	35.13456915496162	-357.7537795572359	422.24531095702315	48.56684182579385	-309.1010550137956	458.8922877256754	58.92045387280984	-296.8684988635358	491.3489378155805	48.54664318732739	-284.9514125830599	53.2952092801399	29.353035623505413	-346.8096300840985	26.39435366423208	56.23390263812741	-241.23564249573664	37.84710680501237	28.033334893269203	-339.767667831599	72.23671790043838	30.929479220651707	-354.8088445460757	60.62082400569053	45.074949274044265	-295.9748968175802	88.70261366548011	58.87176267288442	-263.8754010747796	
4	0.13333333333333333	278.112411721173	1696.6525818494938	-274.47218903042983	227.92051501729478	1525.9663795437978	-390.8378945116931	251.1060192591103	1372.657937977176	-240.36653630657952	445.2981555948897	1320.0955044106606	-264.21336669065226	493.5191952703232	1065.3443120703034	-306.09049240874145	416.4652733153178	934.5362926790573	-473.5563067410157	84.25094637366233	1328.2042062435546	-218.97124720566424	-4.723228859431158	1082.6687594115265	-281.51424959974975	64.51523942594727	952.7591783986629	-470.37371328629786	347.2382502921422	875.7025685981625	-267.1668122191677	371.640509605937	493.05116125743496	-227.5189102390217	436.287833501387	108.72167275179523	-185.4575772160834	141.1227963624609	868.9317926650585	-261.8226148584681	128.906384665517	484.1424758880718	-225.6186418023076	88.70439449196913	105.01825668304421	-170.753280829303	440.0642976431518	52.8529252384474	-166.10950768359504	78.31150379759536	42.41599256825835	-143.2491436003853	436.2269345034635	35.068457003620864	-391.7583001587281	503.1565967863106	39.68915709998072	-332.24522851244154	105.03087759178129	45.13398155069183	-370.7708253302314	21.6434359834261	26.43004364201513	-320.60305247483694	92.12221514574962	941.3993614157565	-290.5682506057414	394.1165025844303	947.4957090878854	-295.5976376526994	296.6841299674119	935.0286995616493	-147.83306218108586	193.6877545849083	932.5329046886766	-151.25057250337957	407.76281122586545	871.6730881919093	-510.35538892592183	382.2514300380336	901.8975612680689	-546.4759220325092	66.00997995534654	892.7348491270241	-517.3786326776745	102.33671398180083	921.6357187040252	-543.8523074579513	79.16161395741324	480.3322599489337	-220.04752339583854	437.2043570341989	920.358924251689	-460.2282711515148	35.41621711487944	96.77314316051844	-162.21731265431256	402.67212467329756	92.26211936035122	-195.1950888304352	414.6369723464545	486.3032218911312	-227.77282180687405	246.97506853043987	1201.1715283796868	-330.6718991618519	116.41943546919316	88.629758764049	-183.99574769856017	331.2217347648502	484.2736819931064	-235.3778231679913	11.269216363922377	1078.2224723991992	-248.5287012230723	240.87271600692975	982.3671815567895	-339.5848274693247	517.9657947763537	1081.2627418358907	-333.6843351190202	395.46265764316865	957.7951669778461	-472.3692423964111	34.04049648959454	942.5627301326552	-461.5903585771217	-25.75807574200524	1108.5668929477702	-305.11629063139077	167.80814621003876	478.98210517173504	-255.64648428530117	469.3610921724259	1062.4243042947915	-278.1973810991745	485.9783183413099	97.78337106943746	-190.29547475367764	82.27294700380627	979.382496117908	-472.39411548554307	228.63688509001702	1450.0149440645278	-372.4831749119368	254.44758275065726	1217.4394579860136	-136.06583332268357	261.71026819185715	1555.175284623876	-400.0608022114496	195.91102175094775	1559.482488008533	-379.6973236579547	175.597725484466	1555.5197075968208	-266.96617646373545	339.339639529033	1541.6756248561633	-315.02388583916894	253.5309332781459	1432.9582900629953	-193.2008305512831	253.19809484830353	1317.3369823811083	-138.65522500623874	264.46907075085727	1065.6348361888492	-148.40261107872632	253.72464596149874	1207.4955464167451	-148.78385002147792	445.84148612932734	1196.4557604384952	-324.9907086897501	507.1893307841947	1170.5193667924898	-266.38937467826435	45.71696181803081	1290.746877502461	-249.64970302838574	24.267340287638746	1139.178962330437	-223.2812198543902	292.9371085131747	1010.4108546599089	-302.81121523087694	245.86743753757614	1113.6340976551276	-358.9423375038314	180.063403173291	1247.151497060093	-335.1369660199267	170.73782047961893	1045.6216871266242	-303.3705268045724	330.63688758987956	1285.8497253872958	-349.7061263255665	343.11175269640034	666.3164040339658	-249.31707187069418	439.8719847245418	637.7509161341562	-238.85076616476385	177.69273291984018	591.6125209126454	-246.71441345156504	36.472111407996636	767.0277199757847	-252.02388348931177	31.372882293194778	202.90314906281515	-190.10136081352738	160.70365787155296	331.59305035168893	-211.48621527953378	457.5778337539826	337.7901751605881	-212.2291084356442	365.2113249237835	285.4700612088664	-207.7727153640329	460.3492278942636	30.8926482039639	-373.59892519182046	484.471246042137	35.78250151080125	-357.17496176732004	423.63712957937884	48.13726205813704	-309.16724633071124	459.9751534579257	59.04641168045393	-296.50343593290586	492.45903955230176	49.16460472781238	-284.2472512014568	54.233075513946	29.284507131156392	-348.5544316446836	26.371732041573775	57.301336048780726	-243.5263080922353	38.66403063353744	28.307041445363314	-341.7262463213363	73.31307321372228	30.445048937462186	-356.29136810098714	61.144621877471344	45.158023486522104	-297.70882896754904	89.03376049978237	58.59310773067152	-265.28952830175297	
